<svg width="205" height="62" viewBox="0 0 205 62" fill="none" xmlns="http://www.w3.org/2000/svg">
<path d="M6.1958 19.0772L26.8464 7.15458L47.4971 19.0772V42.9225L26.8464 54.8452L6.1958 42.9225V19.0772Z" stroke="white" stroke-width="2"/>
<path fill-rule="evenodd" clip-rule="evenodd" d="M26.8465 0L0 15.4998V46.4998L26.8465 61.9997V60.0113L1.722 45.5056V16.494L26.8465 1.98839V0Z" fill="white"/>
<path d="M33.9231 44.7723V45.9262H20.0769V44.7723C20.0769 44.1365 20.595 43.6185 21.2308 43.6185H23.5535C23.6146 42.1785 24.5492 40.9762 25.8462 40.5158V26.9869C25.2381 26.6027 24.8308 25.9288 24.8308 25.1558H25.8462H28.1538H29.1692C29.1692 25.9288 28.7619 26.6027 28.1538 26.9869V40.5146C29.4508 40.975 30.3854 42.1773 30.4465 43.6173H32.7692C33.405 43.6185 33.9231 44.1365 33.9231 44.7723ZM42 34.3865C41.1542 36.7681 38.9019 38.4862 36.2308 38.4862C33.5596 38.4862 31.3073 36.7669 30.4615 34.3865H31.7931L35.6908 24.0562C35.8592 23.6062 36.6012 23.6062 36.7708 24.0562L40.6685 34.3865H42V34.3865ZM39.435 34.3865L36.2308 25.8954L33.0265 34.3877H39.435V34.3865ZM17.7692 22.8608C18.2919 22.8608 18.7177 22.5112 18.8654 22.0369C19.2473 21.8915 19.6385 21.6954 20.04 21.4923C20.9227 21.0469 21.9231 20.5404 22.9615 20.5404C23.9585 20.5404 24.5815 21.0008 24.9381 21.3931C24.9242 21.4923 24.9081 21.5915 24.9081 21.6942C24.9081 22.8492 25.845 23.7862 27 23.7862C28.155 23.7862 29.0919 22.8492 29.0919 21.6942C29.0919 21.5915 29.0758 21.4935 29.0619 21.3942C29.4173 21.0031 30.0404 20.5404 31.0385 20.5404C32.0769 20.5404 33.0773 21.0458 33.9588 21.4912C34.3615 21.6942 34.7527 21.8904 35.1346 22.0358C35.2823 22.51 35.7081 22.8596 36.2308 22.8596C36.8746 22.8596 37.3962 22.3381 37.3962 21.6942C37.3962 21.0504 36.8746 20.5288 36.2308 20.5288C35.8985 20.5288 35.6019 20.6719 35.3896 20.8958C35.1046 20.7758 34.7965 20.6223 34.4792 20.4619C33.4823 19.9577 32.3527 19.3865 31.0385 19.3865C29.8892 19.3865 29.0885 19.8238 28.545 20.2946C28.3015 20.0258 27.99 19.825 27.6358 19.7108C28.0662 19.48 28.3685 19.0404 28.3685 18.52C28.3685 17.7642 27 16 27 16C27 16 25.6315 17.7642 25.6315 18.52C25.6315 19.0415 25.9338 19.48 26.3642 19.7108C26.01 19.8238 25.6985 20.0258 25.455 20.2946C24.9115 19.8238 24.1108 19.3865 22.9615 19.3865C21.6473 19.3865 20.5165 19.9577 19.5196 20.4619C19.2023 20.6235 18.8954 20.7769 18.6104 20.8958C18.3981 20.6731 18.1015 20.5288 17.7692 20.5288C17.1254 20.5288 16.6038 21.0504 16.6038 21.6942C16.6038 22.3381 17.1254 22.8608 17.7692 22.8608ZM17.7692 38.4873C15.0981 38.4873 12.8458 36.7681 12 34.3877H13.3315L17.2292 24.0573C17.3977 23.6073 18.1396 23.6073 18.3092 24.0573L22.2069 34.3877H23.5385C22.6927 36.7681 20.4404 38.4873 17.7692 38.4873ZM20.9735 34.3865L17.7692 25.8954L14.565 34.3877H20.9735V34.3865Z" fill="white"/>
<path d="M59.5627 48.0919C59.6427 47.2519 59.8707 46.5239 60.2467 45.9079C60.6307 45.2839 61.1027 44.8079 61.6627 44.4799C62.2307 44.1519 62.8347 43.9879 63.4747 43.9879C64.2107 43.9879 64.8507 44.1719 65.3947 44.5399C65.9467 44.9079 66.3707 45.4199 66.6667 46.0759C66.9627 46.7319 67.1107 47.4799 67.1107 48.3199C67.1107 49.2959 66.9387 50.1479 66.5947 50.8759C66.2587 51.5959 65.7987 52.1479 65.2147 52.5319C64.6307 52.9159 63.9907 53.1079 63.2947 53.1079C62.5187 53.1079 61.8427 52.9239 61.2667 52.5559C60.6987 52.1879 60.2667 51.6719 59.9707 51.0079C59.6747 50.3439 59.5267 49.5759 59.5267 48.7039H57.4867V52.3639L58.5427 52.4839V52.9999H55.4947V52.4839L56.5147 52.3639V44.7319L55.5307 44.5999V44.0839H58.4827V44.5999L57.4747 44.7319V48.0919H59.5627ZM63.3907 44.5879C62.5507 44.5879 61.8747 44.9279 61.3627 45.6079C60.8507 46.2799 60.5947 47.2919 60.5947 48.6439C60.5947 49.3639 60.7027 50.0159 60.9187 50.5999C61.1347 51.1839 61.4507 51.6479 61.8667 51.9919C62.2827 52.3279 62.7827 52.4959 63.3667 52.4959C64.2067 52.4959 64.8627 52.1559 65.3347 51.4759C65.8067 50.7959 66.0427 49.7879 66.0427 48.4519C66.0427 47.7159 65.9387 47.0559 65.7307 46.4719C65.5227 45.8879 65.2187 45.4279 64.8187 45.0919C64.4267 44.7559 63.9507 44.5879 63.3907 44.5879ZM69.2295 44.7319L68.2695 44.5999V44.0839H69.7215C69.8975 44.0839 70.0695 44.0799 70.2375 44.0719C70.4135 44.0559 70.5415 44.0479 70.6215 44.0479C71.0375 44.0159 71.4375 43.9999 71.8215 43.9999C72.9495 43.9999 73.7455 44.2119 74.2095 44.6359C74.6815 45.0519 74.9175 45.6799 74.9175 46.5199C74.9175 47.1519 74.7655 47.6999 74.4615 48.1639C74.1575 48.6279 73.7455 48.9839 73.2255 49.2319C72.7055 49.4719 72.1255 49.5919 71.4855 49.5919C71.2295 49.5919 70.9655 49.5879 70.6935 49.5799C70.4295 49.5639 70.2695 49.5519 70.2135 49.5439V52.3639L71.8815 52.4839V52.9999H68.1975V52.4839L69.2295 52.3759V44.7319ZM70.2135 48.9559C70.4135 48.9879 70.8455 49.0039 71.5095 49.0039C72.1975 49.0039 72.7615 48.8119 73.2015 48.4279C73.6415 48.0359 73.8615 47.3999 73.8615 46.5199C73.8615 45.8239 73.6735 45.3279 73.2975 45.0319C72.9215 44.7279 72.3295 44.5759 71.5215 44.5759C71.2735 44.5759 70.9975 44.5919 70.6935 44.6239C70.4535 44.6399 70.2935 44.6479 70.2135 44.6479V48.9559ZM79.101 44.0839V44.5999L77.889 44.7319V51.0319L78.993 49.4599L82.689 45.0799V44.7319L81.597 44.5999V44.0839H84.645V44.5999L83.661 44.7319V52.3759L84.717 52.4839V52.9999H81.597V52.4839L82.689 52.3759V45.9799L81.693 47.4319L77.889 51.9079V52.3759L79.041 52.4839V52.9999H75.897V52.4839L76.929 52.3759V44.7319L75.945 44.5999V44.0839H79.101ZM93.3551 52.3639C93.3231 52.6599 93.2751 53.1239 93.2111 53.7559C93.1471 54.3959 93.0951 54.8639 93.0551 55.1599H92.4071C92.3431 53.8079 92.3031 53.0879 92.2871 52.9999H86.6591L86.4671 53.8999C86.4191 54.1319 86.3671 54.3639 86.3111 54.5959C86.2631 54.8279 86.2231 55.0159 86.1911 55.1599H85.5431L85.6871 52.3639H86.5751C86.7591 52.1479 86.9671 51.7679 87.1991 51.2239C87.4391 50.6719 87.6551 49.9159 87.8471 48.9559C88.0391 47.9879 88.1351 46.8559 88.1351 45.5599V44.7319L86.9111 44.5999V44.0839H93.4271V44.5999L92.2991 44.7319V52.3639H93.3551ZM88.7951 45.6319C88.8031 46.7839 88.7271 47.8359 88.5671 48.7879C88.4151 49.7319 88.2351 50.5079 88.0271 51.1159C87.8271 51.7239 87.6471 52.1399 87.4871 52.3639H91.3271L91.3391 44.7079H88.7951V45.6319ZM97.7924 44.0839V44.5999L96.5804 44.7319V51.0319L97.6844 49.4599L101.38 45.0799V44.7319L100.288 44.5999V44.0839H103.336V44.5999L102.352 44.7319V52.3759L103.408 52.4839V52.9999H100.288V52.4839L101.38 52.3759V45.9799L100.384 47.4319L96.5804 51.9079V52.3759L97.7324 52.4839V52.9999H94.5884V52.4839L95.6204 52.3759V44.7319L94.6364 44.5999V44.0839H97.7924ZM109.455 49.0039C109.167 49.1559 108.791 49.2799 108.327 49.3759C107.871 49.4639 107.447 49.5079 107.055 49.5079C106.511 49.5079 106.075 49.4199 105.747 49.2439C105.427 49.0679 105.191 48.7839 105.039 48.3919C104.887 47.9919 104.811 47.4519 104.811 46.7719V44.7439L104.055 44.6119V44.0839H106.875V44.6119L105.783 44.7439V46.4359C105.783 47.1799 105.831 47.7159 105.927 48.0439C106.023 48.3639 106.187 48.5719 106.419 48.6679C106.651 48.7559 107.027 48.7999 107.547 48.7999C107.875 48.7999 108.231 48.7599 108.615 48.6799C108.999 48.5999 109.279 48.5119 109.455 48.4159V44.7319L108.339 44.5999V44.0839H111.519V44.5999L110.427 44.7319V52.3759L111.531 52.4959V52.9999H108.207V52.4839L109.455 52.3759V49.0039ZM113.736 44.7319L112.728 44.5999V44.0839H118.668L118.836 45.8479H118.26L117.936 44.6959L114.72 44.6359V48.1279L116.928 48.0919L117.084 47.0959H117.684V49.7479H117.084L116.928 48.7279L114.72 48.6919V52.3879L118.392 52.2919L119.004 50.7919L119.58 50.9719L119.208 52.9999H112.704V52.4839L113.736 52.3759V44.7319ZM124.421 53.1319C123.565 53.1319 122.829 52.9399 122.213 52.5559C121.597 52.1719 121.129 51.6319 120.809 50.9359C120.489 50.2399 120.329 49.4279 120.329 48.4999C120.329 47.6279 120.517 46.8479 120.893 46.1599C121.269 45.4719 121.781 44.9399 122.429 44.5639C123.077 44.1799 123.801 43.9879 124.601 43.9879C125.009 43.9879 125.401 44.0199 125.777 44.0839C126.161 44.1479 126.469 44.2079 126.701 44.2639C126.933 44.3199 127.077 44.3559 127.133 44.3719L127.037 46.3279H126.413L126.149 44.9359C126.029 44.8319 125.813 44.7439 125.501 44.6719C125.189 44.5999 124.809 44.5639 124.361 44.5639C123.809 44.5639 123.313 44.7159 122.873 45.0199C122.433 45.3159 122.085 45.7519 121.829 46.3279C121.581 46.9039 121.457 47.5919 121.457 48.3919C121.457 49.1439 121.565 49.8359 121.781 50.4679C122.005 51.0999 122.341 51.6079 122.789 51.9919C123.237 52.3679 123.789 52.5559 124.445 52.5559C124.901 52.5559 125.257 52.5199 125.513 52.4479C125.769 52.3679 125.985 52.2559 126.161 52.1119L126.641 50.9839L127.229 51.0679L126.929 52.6759C126.737 52.6839 126.505 52.7359 126.233 52.8319C125.945 52.9279 125.669 52.9999 125.405 53.0479C125.141 53.1039 124.813 53.1319 124.421 53.1319ZM132.094 48.3919C132.358 48.5119 132.646 48.7679 132.958 49.1599C133.27 49.5439 133.65 50.0719 134.098 50.7439C134.434 51.2479 134.706 51.6359 134.914 51.9079C135.122 52.1719 135.294 52.3239 135.43 52.3639L135.898 52.4839V52.9999H134.674C134.498 52.9999 134.286 52.8399 134.038 52.5199C133.79 52.1919 133.462 51.7039 133.054 51.0559C132.606 50.3279 132.238 49.7799 131.95 49.4119C131.662 49.0439 131.406 48.8599 131.182 48.8599H130.294V52.3639L131.35 52.4959V52.9999H128.35V52.4719L129.346 52.3639V44.7319L128.35 44.5999V44.0839H131.326V44.5999L130.294 44.7319V48.3319H131.422L134.014 44.7319L132.946 44.5999V44.0839H135.754V44.5999L134.842 44.7319L132.094 48.3919ZM140.151 53.1319C139.375 53.1319 138.707 52.9439 138.147 52.5679C137.595 52.1839 137.175 51.6519 136.887 50.9719C136.599 50.2919 136.455 49.5039 136.455 48.6079C136.455 47.6879 136.631 46.8799 136.983 46.1839C137.335 45.4799 137.815 44.9399 138.423 44.5639C139.031 44.1799 139.707 43.9879 140.451 43.9879C141.243 43.9879 141.919 44.1719 142.479 44.5399C143.047 44.9079 143.475 45.4279 143.763 46.0999C144.059 46.7719 144.207 47.5599 144.207 48.4639C144.207 49.3919 144.027 50.2119 143.667 50.9239C143.307 51.6279 142.819 52.1719 142.203 52.5559C141.587 52.9399 140.903 53.1319 140.151 53.1319ZM140.343 44.5519C139.487 44.5519 138.807 44.8999 138.303 45.5959C137.799 46.2839 137.547 47.2879 137.547 48.6079C137.547 49.3759 137.655 50.0599 137.871 50.6599C138.087 51.2599 138.403 51.7279 138.819 52.0639C139.235 52.3999 139.731 52.5679 140.307 52.5679C140.867 52.5679 141.355 52.4159 141.771 52.1119C142.187 51.7999 142.511 51.3359 142.743 50.7199C142.975 50.1039 143.091 49.3519 143.091 48.4639C143.091 47.6879 142.983 47.0079 142.767 46.4239C142.551 45.8319 142.235 45.3719 141.819 45.0439C141.411 44.7159 140.919 44.5519 140.343 44.5519ZM146.268 44.7319L145.26 44.5999V44.0839H151.2L151.368 45.8479H150.792L150.468 44.6959L147.252 44.6359V48.1279L149.46 48.0919L149.616 47.0959H150.216V49.7479H149.616L149.46 48.7279L147.252 48.6919V52.3879L150.924 52.2919L151.536 50.7919L152.112 50.9719L151.74 52.9999H145.236V52.4839L146.268 52.3759V44.7319ZM157.916 47.7199C158.068 47.6879 158.3 47.6559 158.612 47.6239C158.932 47.5919 159.228 47.5759 159.5 47.5759C160.484 47.5759 161.232 47.8039 161.744 48.2599C162.264 48.7159 162.524 49.3599 162.524 50.1919C162.524 51.1279 162.236 51.8479 161.66 52.3519C161.084 52.8479 160.312 53.0959 159.344 53.0959C159.264 53.0959 159.164 53.0919 159.044 53.0839C158.924 53.0759 158.788 53.0679 158.636 53.0599C157.956 53.0199 157.568 52.9999 157.472 52.9999H155.672V52.4839L156.944 52.3759V44.7319L155.684 44.5999V44.0839H161.996L162.116 46.2559H161.432L161.06 44.6959L157.916 44.6239V47.7199ZM157.916 52.3999C157.972 52.4079 158.108 52.4279 158.324 52.4599C158.54 52.4919 158.844 52.5079 159.236 52.5079C159.948 52.5079 160.5 52.3199 160.892 51.9439C161.284 51.5599 161.48 50.9999 161.48 50.2639C161.48 49.5759 161.284 49.0679 160.892 48.7399C160.508 48.4039 159.956 48.2359 159.236 48.2359C158.636 48.2359 158.196 48.2639 157.916 48.3199V52.3999ZM167.68 48.0919C167.76 47.2519 167.988 46.5239 168.364 45.9079C168.748 45.2839 169.22 44.8079 169.78 44.4799C170.348 44.1519 170.952 43.9879 171.592 43.9879C172.328 43.9879 172.968 44.1719 173.512 44.5399C174.064 44.9079 174.488 45.4199 174.784 46.0759C175.08 46.7319 175.228 47.4799 175.228 48.3199C175.228 49.2959 175.056 50.1479 174.712 50.8759C174.376 51.5959 173.916 52.1479 173.332 52.5319C172.748 52.9159 172.108 53.1079 171.412 53.1079C170.636 53.1079 169.96 52.9239 169.384 52.5559C168.816 52.1879 168.384 51.6719 168.088 51.0079C167.792 50.3439 167.644 49.5759 167.644 48.7039H165.604V52.3639L166.66 52.4839V52.9999H163.612V52.4839L164.632 52.3639V44.7319L163.648 44.5999V44.0839H166.6V44.5999L165.592 44.7319V48.0919H167.68ZM171.508 44.5879C170.668 44.5879 169.992 44.9279 169.48 45.6079C168.968 46.2799 168.712 47.2919 168.712 48.6439C168.712 49.3639 168.82 50.0159 169.036 50.5999C169.252 51.1839 169.568 51.6479 169.984 51.9919C170.4 52.3279 170.9 52.4959 171.484 52.4959C172.324 52.4959 172.98 52.1559 173.452 51.4759C173.924 50.7959 174.16 49.7879 174.16 48.4519C174.16 47.7159 174.056 47.0559 173.848 46.4719C173.64 45.8879 173.336 45.4279 172.936 45.0919C172.544 44.7559 172.068 44.5879 171.508 44.5879ZM177.347 44.7319L176.387 44.5999V44.0839H177.839C178.015 44.0839 178.187 44.0799 178.355 44.0719C178.531 44.0559 178.659 44.0479 178.739 44.0479C179.155 44.0159 179.555 43.9999 179.939 43.9999C181.067 43.9999 181.863 44.2119 182.327 44.6359C182.799 45.0519 183.035 45.6799 183.035 46.5199C183.035 47.1519 182.883 47.6999 182.579 48.1639C182.275 48.6279 181.863 48.9839 181.343 49.2319C180.823 49.4719 180.243 49.5919 179.603 49.5919C179.347 49.5919 179.083 49.5879 178.811 49.5799C178.547 49.5639 178.387 49.5519 178.331 49.5439V52.3639L179.999 52.4839V52.9999H176.315V52.4839L177.347 52.3759V44.7319ZM178.331 48.9559C178.531 48.9879 178.963 49.0039 179.627 49.0039C180.315 49.0039 180.879 48.8119 181.319 48.4279C181.759 48.0359 181.979 47.3999 181.979 46.5199C181.979 45.8239 181.791 45.3279 181.415 45.0319C181.039 44.7279 180.447 44.5759 179.639 44.5759C179.391 44.5759 179.115 44.5919 178.811 44.6239C178.571 44.6399 178.411 44.6479 178.331 44.6479V48.9559ZM187.506 53.1319C186.73 53.1319 186.062 52.9439 185.502 52.5679C184.95 52.1839 184.53 51.6519 184.242 50.9719C183.954 50.2919 183.81 49.5039 183.81 48.6079C183.81 47.6879 183.986 46.8799 184.338 46.1839C184.69 45.4799 185.17 44.9399 185.778 44.5639C186.386 44.1799 187.062 43.9879 187.806 43.9879C188.598 43.9879 189.274 44.1719 189.834 44.5399C190.402 44.9079 190.83 45.4279 191.118 46.0999C191.414 46.7719 191.562 47.5599 191.562 48.4639C191.562 49.3919 191.382 50.2119 191.022 50.9239C190.662 51.6279 190.174 52.1719 189.558 52.5559C188.942 52.9399 188.258 53.1319 187.506 53.1319ZM187.698 44.5519C186.842 44.5519 186.162 44.8999 185.658 45.5959C185.154 46.2839 184.902 47.2879 184.902 48.6079C184.902 49.3759 185.01 50.0599 185.226 50.6599C185.442 51.2599 185.758 51.7279 186.174 52.0639C186.59 52.3999 187.086 52.5679 187.662 52.5679C188.222 52.5679 188.71 52.4159 189.126 52.1119C189.542 51.7999 189.866 51.3359 190.098 50.7199C190.33 50.1039 190.446 49.3519 190.446 48.4639C190.446 47.6879 190.338 47.0079 190.122 46.4239C189.906 45.8319 189.59 45.3719 189.174 45.0439C188.766 44.7159 188.274 44.5519 187.698 44.5519Z" fill="white"/>
<path d="M73.7267 29.7199H74.7667C74.9 30.4665 75.02 31.4132 75.1267 32.5599C75.2333 33.6799 75.26 34.7732 75.2067 35.8399C74.8067 36.1599 74.3267 36.4265 73.7667 36.6399C73.2067 36.8265 72.6067 36.9865 71.9667 37.1199C71.3533 37.2532 70.7133 37.3465 70.0467 37.3999C69.4067 37.4532 68.7933 37.4799 68.2067 37.4799C65.9667 37.4799 63.9667 37.1999 62.2067 36.6399C60.4467 36.0532 58.9533 35.1732 57.7267 33.9999C56.5267 32.8265 55.5933 31.3332 54.9267 29.5199C54.2867 27.6799 53.9667 25.5065 53.9667 22.9999C53.9667 20.3865 54.3267 18.1732 55.0467 16.3599C55.7667 14.5199 56.74 13.0265 57.9667 11.8799C59.1933 10.7065 60.62 9.85321 62.2467 9.31988C63.8733 8.78654 65.58 8.51988 67.3667 8.51988C69.1267 8.51988 70.6067 8.63988 71.8067 8.87988C73.0067 9.09321 74.06 9.42654 74.9667 9.87988C74.9667 10.3065 74.9533 10.8132 74.9267 11.3999C74.9 11.9599 74.86 12.5599 74.8067 13.1999C74.7533 13.8399 74.6867 14.4665 74.6067 15.0799C74.5267 15.6932 74.4467 16.2532 74.3667 16.7599H73.3267L71.2467 10.9999C70.9533 10.8399 70.46 10.7332 69.7667 10.6799C69.1 10.6265 68.4333 10.5999 67.7667 10.5999C66.4333 10.5999 65.1667 10.8532 63.9667 11.3599C62.7933 11.8399 61.7533 12.5999 60.8467 13.6399C59.9667 14.6532 59.26 15.9465 58.7267 17.5199C58.1933 19.0665 57.9267 20.8932 57.9267 22.9999C57.9267 24.8932 58.1667 26.6132 58.6467 28.1599C59.1267 29.6799 59.82 30.9865 60.7267 32.0799C61.6333 33.1465 62.74 33.9732 64.0467 34.5599C65.3533 35.1199 66.8333 35.3999 68.4867 35.3999C69.3667 35.3999 70.1 35.3332 70.6867 35.1999C71.2733 35.0665 71.66 34.8932 71.8467 34.6799L73.7267 29.7199ZM79.5323 22.9999C79.5323 20.9199 79.8123 18.9999 80.3723 17.2399C80.959 15.4532 81.7856 13.9199 82.8523 12.6399C83.9456 11.3332 85.279 10.3199 86.8523 9.59988C88.4256 8.87988 90.2123 8.51988 92.2123 8.51988C94.2123 8.51988 95.999 8.87988 97.5723 9.59988C99.1456 10.3199 100.466 11.3332 101.532 12.6399C102.626 13.9199 103.452 15.4532 104.012 17.2399C104.599 18.9999 104.892 20.9199 104.892 22.9999C104.892 25.0799 104.599 27.0132 104.012 28.7999C103.452 30.5599 102.626 32.0932 101.532 33.3999C100.466 34.6799 99.1456 35.6799 97.5723 36.3999C95.999 37.1199 94.2123 37.4799 92.2123 37.4799C90.2123 37.4799 88.4256 37.1199 86.8523 36.3999C85.279 35.6799 83.9456 34.6799 82.8523 33.3999C81.7856 32.0932 80.959 30.5599 80.3723 28.7999C79.8123 27.0132 79.5323 25.0799 79.5323 22.9999ZM83.8123 22.9999C83.8123 24.7065 83.9856 26.3199 84.3323 27.8399C84.7056 29.3332 85.2523 30.6399 85.9723 31.7599C86.6923 32.8799 87.599 33.7732 88.6923 34.4399C89.7856 35.0799 91.079 35.3999 92.5723 35.3999C93.9323 35.3999 95.119 35.0799 96.1323 34.4399C97.1456 33.7732 97.9723 32.8799 98.6123 31.7599C99.279 30.6399 99.7723 29.3332 100.092 27.8399C100.439 26.3199 100.612 24.7065 100.612 22.9999C100.612 21.2932 100.439 19.6932 100.092 18.1999C99.7456 16.6799 99.2123 15.3599 98.4923 14.2399C97.7723 13.1199 96.8656 12.2399 95.7723 11.5999C94.679 10.9332 93.3856 10.5999 91.8923 10.5999C90.4256 10.5999 89.1723 10.9332 88.1323 11.5999C87.119 12.2399 86.2923 13.1199 85.6523 14.2399C85.0123 15.3599 84.5456 16.6799 84.2523 18.1999C83.959 19.6932 83.8123 21.2932 83.8123 22.9999ZM108.982 36.9999V35.8399C110.048 35.3332 111.142 35.0132 112.262 34.8799V11.1599C111.728 11.0532 111.182 10.9199 110.622 10.7599C110.062 10.5732 109.515 10.3732 108.982 10.1599V8.99988H113.222C113.728 8.99988 114.208 8.98654 114.662 8.95988C115.142 8.93321 115.635 8.90654 116.142 8.87988C116.648 8.85321 117.195 8.82654 117.782 8.79988C118.368 8.77321 119.035 8.75988 119.782 8.75988C120.848 8.75988 121.928 8.85321 123.022 9.03988C124.142 9.19988 125.142 9.51988 126.022 9.99988C126.928 10.4799 127.662 11.1599 128.222 12.0399C128.782 12.8932 129.062 14.0132 129.062 15.3999C129.062 16.0932 128.955 16.7865 128.742 17.4799C128.528 18.1732 128.195 18.8265 127.742 19.4399C127.315 20.0265 126.768 20.5465 126.102 20.9999C125.435 21.4532 124.648 21.7865 123.742 21.9999V22.1599C124.542 22.2932 125.328 22.5199 126.102 22.8399C126.902 23.1599 127.608 23.5999 128.222 24.1599C128.835 24.6932 129.328 25.3599 129.702 26.1599C130.102 26.9599 130.302 27.9199 130.302 29.0399C130.302 30.4799 129.982 31.7199 129.342 32.7599C128.702 33.7999 127.862 34.6532 126.822 35.3199C125.808 35.9865 124.648 36.4799 123.342 36.7999C122.035 37.0932 120.715 37.2399 119.382 37.2399C118.448 37.2399 117.395 37.1999 116.222 37.1199C115.048 37.0399 113.915 36.9999 112.822 36.9999H108.982ZM119.662 35.1599C120.622 35.1599 121.515 35.0132 122.342 34.7199C123.195 34.4265 123.915 34.0265 124.502 33.5199C125.115 32.9865 125.595 32.3599 125.942 31.6399C126.288 30.8932 126.462 30.0932 126.462 29.2399C126.462 28.1732 126.248 27.2932 125.822 26.5999C125.422 25.8799 124.862 25.3199 124.142 24.9199C123.448 24.4932 122.635 24.1999 121.702 24.0399C120.795 23.8799 119.848 23.7999 118.862 23.7999H115.862V34.8399C116.235 34.9465 116.675 35.0265 117.182 35.0799C117.715 35.1332 118.542 35.1599 119.662 35.1599ZM117.862 21.7199C118.315 21.7199 118.848 21.7065 119.462 21.6799C120.102 21.6265 120.622 21.5732 121.022 21.5199C122.248 21.0932 123.248 20.4132 124.022 19.4799C124.822 18.5199 125.222 17.3999 125.222 16.1199C125.222 14.3599 124.688 13.0399 123.622 12.1599C122.582 11.2799 121.182 10.8399 119.422 10.8399C118.595 10.8399 117.888 10.8532 117.302 10.8799C116.715 10.9065 116.235 10.9465 115.862 10.9999V21.7199H117.862ZM153.351 8.99988C153.324 10.0665 153.271 11.1465 153.191 12.2399C153.138 13.3065 153.044 14.3865 152.911 15.4799H151.871L150.231 11.0799H141.511V21.6799H148.031L149.591 18.7199H150.591C150.751 21.3599 150.751 24.0532 150.591 26.7999H149.591L148.031 23.7599H141.511V34.9199H150.711L152.671 30.1199H153.671C153.858 31.2399 153.991 32.3732 154.071 33.5199C154.151 34.6665 154.164 35.8265 154.111 36.9999H134.391V35.8399C135.324 35.4132 136.418 35.0932 137.671 34.8799V11.1599C137.138 11.0532 136.591 10.9199 136.031 10.7599C135.471 10.5732 134.924 10.3732 134.391 10.1599V8.99988H153.351ZM175.312 36.9999H164.072V35.8399C164.659 35.6265 165.246 35.4399 165.832 35.2799C166.446 35.1199 167.099 34.9865 167.792 34.8799V11.0799H161.672L159.552 16.7999H158.552C158.472 16.2665 158.406 15.6665 158.352 14.9999C158.299 14.3065 158.246 13.6132 158.192 12.9199C158.166 12.1999 158.139 11.5065 158.112 10.8399C158.086 10.1465 158.072 9.53321 158.072 8.99988H181.312C181.312 9.53321 181.299 10.1332 181.272 10.7999C181.246 11.4665 181.206 12.1599 181.152 12.8799C181.126 13.5732 181.086 14.2665 181.032 14.9599C181.006 15.6265 180.952 16.2399 180.872 16.7999H179.832L177.752 11.0799H171.632V34.8799C172.326 35.0132 172.966 35.1465 173.552 35.2799C174.166 35.4132 174.752 35.5999 175.312 35.8399V36.9999Z" fill="white"/>
<line x1="26.8467" y1="60.9999" x2="193.847" y2="60.9999" stroke="white" stroke-width="2"/>
</svg>
