<svg width="38" height="38" viewBox="0 0 38 38" fill="none" xmlns="http://www.w3.org/2000/svg">
<g clip-path="url(#clip0)">
<path d="M6.93857 0C3.09491 0 0 3.09491 0 6.93857V31.0615C0 34.9051 3.09491 38 6.93857 38H20.013V23.1444H16.0847V17.7959H20.013V13.2264C20.013 9.63634 22.334 6.34007 27.6806 6.34007C29.8454 6.34007 31.4462 6.54789 31.4462 6.54789L31.3203 11.5425C31.3203 11.5425 29.6877 11.5271 27.9062 11.5271C25.9782 11.5271 25.669 12.4155 25.669 13.8903V17.7959H31.4735L31.2206 23.1444H25.669V38.0001H31.0614C34.9051 38.0001 38 34.9052 38 31.0615V6.93861C38 3.09495 34.9051 3.8e-05 31.0614 3.8e-05H6.93853L6.93857 0Z" fill="#404040"/>
</g>
<defs>
<clipPath id="clip0">
<path d="M0 0H38V38H0V0Z" fill="white"/>
</clipPath>
</defs>
</svg>
