<svg width="36" height="36" viewBox="0 0 36 36" fill="none" xmlns="http://www.w3.org/2000/svg">
<path fill-rule="evenodd" clip-rule="evenodd" d="M5.6 0C2.50721 0 0 2.50721 0 5.6V30.4C0 33.4928 2.50721 36 5.6 36H30.4C33.4928 36 36 33.4928 36 30.4V5.6C36 2.50721 33.4928 0 30.4 0H5.6ZM5.69069 16.1912L28.2788 7.63808C29.3095 7.18021 30.3057 7.88203 29.9121 9.43203L26.0658 27.2314C25.797 28.4974 25.0212 28.7977 23.9408 28.2134L18.0817 23.9638L15.2648 26.6534C15.2543 26.6634 15.2439 26.6733 15.2335 26.6832C14.9193 26.9816 14.6588 27.2289 14.0915 27.2289L14.4915 21.3592L14.489 21.3579H14.4915L25.3626 11.7239C25.8391 11.3085 25.2594 11.1046 24.6249 11.4837L11.2071 19.7966L5.40786 18.0202C4.15807 17.6437 4.14915 16.7992 5.69069 16.1912Z" fill="white"/>
</svg>
