<svg width="38" height="38" viewBox="0 0 38 38" fill="none" xmlns="http://www.w3.org/2000/svg">
<path fill-rule="evenodd" clip-rule="evenodd" d="M5.6 0C2.50721 0 0 2.5072 0 5.6V32.4C0 35.4928 2.5072 38 5.6 38H32.4C35.4928 38 38 35.4928 38 32.4V5.6C38 2.50721 35.4928 0 32.4 0H5.6ZM6.00684 17.0907L29.8498 8.06242C30.9378 7.57911 31.9894 8.31992 31.5738 9.95603L27.5139 28.7443C27.2302 30.0806 26.4112 30.3975 25.2708 29.7809L19.0862 25.2951L16.1129 28.1342C16.1018 28.1447 16.0908 28.1552 16.0798 28.1656C15.7481 28.4805 15.4731 28.7416 14.8743 28.7416L15.2966 22.5458L15.2939 22.5445H15.2966L26.7716 12.3752C27.2746 11.9368 26.6627 11.7216 25.993 12.1217L11.8298 20.8965L5.7083 19.0213C4.38907 18.6239 4.37966 17.7325 6.00684 17.0907Z" fill="#404040"/>
</svg>
