<svg width="37" height="36" viewBox="0 0 37 36" fill="none" xmlns="http://www.w3.org/2000/svg">
<g clip-path="url(#clip0)">
<path d="M24.0238 0H12.9729C2.88843 0 0.497803 2.39062 0.497803 12.4751V23.526C0.497803 33.6105 2.88843 36.0011 12.9729 36.0011H24.0238C34.1083 36.0011 36.4989 33.6105 36.4989 23.526V12.4751C36.4989 2.39062 34.0847 0 24.0238 0ZM29.5611 25.6815H26.9477C25.9577 25.6815 25.6528 24.8962 23.8719 23.0917C22.3251 21.5921 21.6399 21.393 21.2586 21.393C20.7197 21.393 20.5667 21.5449 20.5667 22.284V24.6454C20.5667 25.2787 20.3676 25.659 18.6913 25.659C15.9193 25.659 12.8436 23.9827 10.6869 20.8597C7.43455 16.2833 6.54468 12.8554 6.54468 12.1466C6.54468 11.7653 6.69655 11.4086 7.42893 11.4086H10.0479C10.7106 11.4086 10.9626 11.7135 11.2202 12.4222C12.5151 16.1606 14.6717 19.4355 15.5616 19.4355C15.8901 19.4355 16.0419 19.2836 16.0419 18.4455V14.5845C15.9418 12.8036 15.0047 12.6506 15.0047 12.0184C15.0047 11.7135 15.2567 11.4086 15.6606 11.4086H19.7792C20.3361 11.4086 20.5408 11.7135 20.5408 12.3694V17.5781C20.5408 18.1406 20.7928 18.3398 20.9447 18.3398C21.2732 18.3398 21.5544 18.1406 22.1631 17.5309C24.0441 15.4215 25.3918 12.1691 25.3918 12.1691C25.5673 11.7878 25.8722 11.4311 26.5348 11.4311H29.1538C29.9391 11.4311 30.1146 11.835 29.9391 12.3975C29.6106 13.9208 26.4054 18.4444 26.4054 18.4444C26.1298 18.9011 26.0241 19.1003 26.4054 19.6099C26.6867 19.9912 27.6013 20.7821 28.2099 21.4909C29.3293 22.7621 30.1899 23.8286 30.4194 24.5666C30.6771 25.299 30.2968 25.6804 29.5577 25.6804L29.5611 25.6815Z" fill="white"/>
</g>
<defs>
<clipPath id="clip0">
<path d="M0.5 0H36.5V36H0.5V0Z" fill="white"/>
</clipPath>
</defs>
</svg>
