<svg width="38" height="38" viewBox="0 0 38 38" fill="none" xmlns="http://www.w3.org/2000/svg">
<g clip-path="url(#clip0)">
<path d="M24.8306 0H13.1657C2.521 0 -0.00244141 2.52344 -0.00244141 13.1682V24.833C-0.00244141 35.4777 2.521 38.0012 13.1657 38.0012H24.8306C35.4753 38.0012 37.9987 35.4777 37.9987 24.833V13.1682C37.9987 2.52344 35.4504 0 24.8306 0ZM30.6754 27.1082H27.9169C26.8719 27.1082 26.5501 26.2794 24.6702 24.3746C23.0374 22.7917 22.3142 22.5815 21.9117 22.5815C21.3429 22.5815 21.1814 22.7418 21.1814 23.522V26.0146C21.1814 26.6831 20.9712 27.0845 19.2018 27.0845C16.2758 27.0845 13.0292 25.3151 10.7527 22.0186C7.31968 17.1879 6.38037 13.5696 6.38037 12.8214C6.38037 12.4189 6.54068 12.0424 7.31375 12.0424H10.0782C10.7777 12.0424 11.0437 12.3643 11.3156 13.1124C12.6824 17.0584 14.9589 20.5152 15.8982 20.5152C16.2449 20.5152 16.4052 20.3549 16.4052 19.4702V15.3947C16.2996 13.5149 15.3104 13.3534 15.3104 12.6861C15.3104 12.3642 15.5764 12.0424 16.0027 12.0424H20.3501C20.9379 12.0424 21.1541 12.3643 21.1541 13.0566V18.5547C21.1541 19.1484 21.4201 19.3586 21.5804 19.3586C21.9271 19.3586 22.224 19.1484 22.8664 18.5048C24.8519 16.2782 26.2746 12.8452 26.2746 12.8452C26.4598 12.4426 26.7816 12.0662 27.4811 12.0662H30.2456C31.0744 12.0662 31.2597 12.4925 31.0744 13.0863C30.7277 14.6941 27.3445 19.4691 27.3445 19.4691C27.0536 19.9512 26.9419 20.1614 27.3445 20.6993C27.6414 21.1019 28.6068 21.9367 29.2492 22.6848C30.4308 24.0267 31.3392 25.1524 31.5815 25.9314C31.8534 26.7045 31.4521 27.1071 30.6719 27.1071L30.6754 27.1082Z" fill="#404040"/>
</g>
<defs>
<clipPath id="clip0">
<path d="M0 0H38V38H0V0Z" fill="white"/>
</clipPath>
</defs>
</svg>
