<svg width="24" height="24" viewBox="0 0 24 24" fill="none" xmlns="http://www.w3.org/2000/svg">
<path d="M19.1 18.6667H3.9C2.855 18.6667 2 17.8805 2 16.9196V7.74716C2 6.78624 2.855 6.00003 3.9 6.00003H19.1C20.145 6.00003 21 6.78624 21 7.74716V16.9196C21 17.8805 20.145 18.6667 19.1 18.6667ZM3.9 6.56785C3.1875 6.56785 2.6175 7.09198 2.6175 7.74716V16.9196C2.6175 17.5747 3.1875 18.0552 3.9 18.0552H19.1C19.8125 18.0552 20.3825 17.5311 20.3825 16.9196V7.74716C20.3825 7.09198 19.8125 6.61152 19.1 6.61152H3.9V6.56785Z" fill="#938B8B"/>
<path d="M11.6426 14.3862C10.8826 14.3862 10.1226 14.0804 9.60008 13.5563L2.80758 6.7862C2.71258 6.65516 2.71258 6.48045 2.80758 6.39309C2.95008 6.30574 3.14008 6.30574 3.23508 6.39309L10.0751 13.1632C10.9301 13.9931 12.4026 13.9931 13.2576 13.1632L20.0026 6.43677C20.1451 6.30574 20.1926 6.48045 20.3351 6.61148C20.4776 6.69884 20.5726 6.74252 20.4776 6.82987L13.6851 13.5126C13.1626 14.0804 12.4501 14.3862 11.6426 14.3862Z" fill="#938B8B"/>
<path d="M3.04508 18.2299C2.95008 18.2299 2.85508 18.1863 2.80758 18.1426C2.71258 18.0115 2.71258 17.8368 2.80758 17.7495L9.03008 12.5955C9.17258 12.5081 9.36258 12.5081 9.45758 12.5955C9.60008 12.7265 9.55258 12.9012 9.45758 12.9886L3.23508 18.1426C3.18758 18.1863 3.09258 18.2299 3.04508 18.2299Z" fill="#938B8B"/>
<path d="M20.2399 18.1862C20.1449 18.1862 20.0974 18.1425 20.0499 18.0989L13.8749 12.9885C13.7324 12.9012 13.7324 12.6828 13.8749 12.5954C14.0174 12.4644 14.2074 12.4644 14.3024 12.5954L20.4774 17.7058C20.6199 17.7931 20.6199 18.0115 20.4774 18.0989C20.4299 18.1425 20.3349 18.1862 20.2399 18.1862Z" fill="#938B8B"/>
</svg>
