<svg width="190" height="64" viewBox="0 0 190 64" fill="none" xmlns="http://www.w3.org/2000/svg">
<path d="M34.6828 51.423C35.1608 52.0342 35.4052 52.7946 35.3727 53.5688C35.3703 53.9435 35.3294 54.3171 35.2507 54.6835C35.1142 55.4708 34.8039 56.218 34.3421 56.8712C33.9342 57.4603 33.3996 57.9514 32.7773 58.3087C32.223 58.6235 31.598 58.7936 30.9601 58.8032C30.6024 58.8227 30.2454 58.7537 29.921 58.6023C29.5966 58.451 29.3148 58.2219 29.1008 57.9357C28.6567 57.2973 28.4324 56.5326 28.4614 55.7564C28.4621 55.4759 28.4831 55.1957 28.5245 54.9182H26.9849L26.3665 58.3255C26.3034 58.5644 25.9796 58.6859 25.4117 58.6859C25.0121 58.6859 24.8101 58.6356 24.8101 58.5434L24.8901 58.1243C25.0247 57.4999 25.0962 57.1478 25.1088 57.0682L25.9459 52.6174C25.9739 52.4654 25.9866 52.3109 25.9838 52.1564C25.9838 51.775 25.866 51.5822 25.6262 51.5822C25.3864 51.5822 24.9279 51.8589 24.4063 52.4204C24.3873 52.4275 24.3664 52.4275 24.3474 52.4204C24.3247 52.4184 24.3029 52.4109 24.2838 52.3984C24.2647 52.386 24.249 52.3691 24.2381 52.3492C24.2208 52.3319 24.2112 52.3086 24.2112 52.2842C24.2112 52.2599 24.2208 52.2365 24.2381 52.2193C24.6037 51.7672 25.0281 51.3655 25.5 51.0248C25.8296 50.7899 26.2222 50.6585 26.6273 50.6477C26.7474 50.6376 26.8682 50.6551 26.9805 50.6987C27.0927 50.7422 27.1935 50.8108 27.2752 50.8991C27.4341 51.1204 27.5086 51.3908 27.4855 51.6619C27.4719 51.9159 27.4452 52.1691 27.4056 52.4204L27.048 54.4488H28.5834C28.7972 53.3866 29.3263 52.4128 30.1019 51.6535C30.4407 51.3101 30.8446 51.0373 31.2902 50.8509C31.7358 50.6646 32.2141 50.5684 32.6974 50.568C33.0724 50.5459 33.4473 50.6117 33.7922 50.7602C34.137 50.9087 34.442 51.1357 34.6828 51.423ZM33.6943 54.1471C33.7235 53.3914 33.5796 52.639 33.2737 51.9469C33.1864 51.7004 33.0281 51.485 32.8186 51.3277C32.6091 51.1704 32.3577 51.0782 32.0958 51.0626C31.8516 51.0741 31.6139 51.1455 31.4041 51.2706C31.1942 51.3956 31.0186 51.5703 30.8928 51.7792C30.4962 52.3969 30.2512 53.099 30.1777 53.8286C30.1146 54.2631 30.0809 54.7013 30.0767 55.1404C30.059 55.9115 30.2022 56.6778 30.4974 57.3909C30.7708 58.0028 31.1494 58.3087 31.6289 58.3087C31.8682 58.2916 32.0997 58.2162 32.3029 58.089C32.506 57.9619 32.6747 57.7869 32.7941 57.5795C33.1994 56.9701 33.4691 56.2813 33.5849 55.5595C33.6582 55.0978 33.6948 54.6312 33.6943 54.1639V54.1471Z" fill="white"/>
<path d="M43.4281 51.2302C43.6137 51.4415 43.7557 51.6873 43.8459 51.9534C43.9361 52.2194 43.9728 52.5006 43.9539 52.7808C43.9547 53.014 43.935 53.2468 43.895 53.4765C43.7653 54.3703 43.4485 55.227 42.9654 55.9911C42.5182 56.7284 41.9188 57.3627 41.2071 57.8519C40.5939 58.2926 39.8598 58.5354 39.1038 58.5476C38.8234 58.5476 38.5163 58.535 38.1826 58.5098L37.5432 62.0722C37.5072 62.2629 37.4875 62.4564 37.4843 62.6505C37.4774 62.7326 37.4868 62.8152 37.5121 62.8936C37.5374 62.972 37.578 63.0446 37.6315 63.1073C37.7729 63.2123 37.9481 63.2615 38.1237 63.2456C38.1784 63.2456 38.3214 63.2456 38.5443 63.2037C38.599 63.2037 38.6327 63.2037 38.6453 63.2959C38.6579 63.3881 38.6453 63.4091 38.5864 63.4258L34.9099 64C34.8678 64 34.8384 64 34.8216 63.9036C34.8047 63.8072 34.8216 63.7779 34.8678 63.7611C35.0862 63.731 35.2972 63.6614 35.4904 63.5557C35.6349 63.4539 35.7402 63.3061 35.7891 63.1366C35.8852 62.831 35.9583 62.5186 36.0078 62.2021L37.6904 52.6886C37.2235 53.0071 36.8996 53.2334 36.7103 53.3675C36.6913 53.3746 36.6704 53.3746 36.6514 53.3675C36.6093 53.3675 36.5757 53.3382 36.5504 53.2879C36.5252 53.2376 36.5294 53.1957 36.5504 53.1664C36.8154 52.9401 37.2151 52.63 37.7493 52.2318L38.0059 50.8195C38.1229 50.6969 38.2576 50.5924 38.4055 50.5093C38.6601 50.3433 38.9006 50.1569 39.1248 49.9519C39.3331 49.7894 39.4812 49.5623 39.5455 49.3065C39.5455 49.252 39.6044 49.2353 39.6759 49.2479C39.7474 49.2604 39.781 49.294 39.7684 49.3484L39.4277 51.2763C40.1867 50.9045 41.0177 50.7014 41.8633 50.6812C42.1481 50.6594 42.4343 50.697 42.7037 50.7915C42.9731 50.886 43.2198 51.0354 43.4281 51.2302ZM42.3512 53.5519C42.3512 52.25 41.7988 51.599 40.6939 51.599C40.2356 51.6013 39.7818 51.6894 39.3562 51.8588L38.3172 57.6717C38.7769 57.8733 39.2746 57.9748 39.7768 57.9692C40.1254 57.9661 40.4665 57.868 40.7631 57.6855C41.0597 57.503 41.3005 57.2432 41.4594 56.934C41.9304 56.073 42.2169 55.1241 42.3008 54.1471C42.3512 53.8831 42.3512 53.6819 42.3512 53.5519Z" fill="white"/>
<path d="M53.6163 56.934C53.6381 56.9354 53.6591 56.9428 53.677 56.9554C53.6948 56.968 53.7088 56.9853 53.7173 57.0053C53.7298 57.0239 53.7364 57.0458 53.7364 57.0682C53.7364 57.0905 53.7298 57.1124 53.7173 57.131C53.3403 57.583 52.9063 57.9844 52.4259 58.3254C52.0966 58.5611 51.7038 58.6925 51.2985 58.7026C51.1808 58.7129 51.0623 58.6968 50.9516 58.6555C50.841 58.6142 50.741 58.5486 50.6592 58.4638C50.5092 58.242 50.4395 57.9759 50.4615 57.7094C50.4616 57.4489 50.4884 57.1891 50.5414 56.934L50.8779 54.9224C50.5184 55.963 49.9678 56.928 49.2542 57.768C49.0178 58.0674 48.7198 58.3128 48.3802 58.4878C48.0406 58.6627 47.6674 58.7632 47.2855 58.7823C46.3769 58.7823 45.9268 58.2542 45.9268 57.1939C45.9256 56.8463 45.9594 56.4995 46.0278 56.1587L46.7429 52.6174C46.7803 52.4536 46.8015 52.2866 46.806 52.1186C46.806 51.775 46.6924 51.599 46.4653 51.599C46.2887 51.6163 46.1215 51.6864 45.9857 51.8001C45.7508 51.9738 45.5312 52.1673 45.3295 52.3785C45.3083 52.4002 45.2799 52.4137 45.2496 52.4162C45.2275 52.4159 45.206 52.4089 45.188 52.3962C45.17 52.3835 45.1563 52.3656 45.1486 52.3449C45.1327 52.3279 45.1238 52.3054 45.1238 52.2821C45.1238 52.2588 45.1327 52.2363 45.1486 52.2192C45.5066 51.7813 45.9114 51.3836 46.3559 51.0332C46.6574 50.8007 47.0263 50.6713 47.4075 50.6644C47.9922 50.6644 48.2867 51.0248 48.2867 51.7415C48.2775 52.0357 48.2437 52.3287 48.1857 52.6174L47.5463 55.7773C47.4742 56.091 47.4347 56.4112 47.4286 56.7329C47.4286 57.4244 47.6641 57.768 48.1437 57.768C48.5433 57.768 48.9555 57.5082 49.3846 56.9927C49.9035 56.3045 50.3108 55.5394 50.5919 54.7254C51.0138 53.577 51.325 52.3912 51.5215 51.1841L51.5425 51.0416C51.6056 50.8027 51.9295 50.6853 52.4974 50.6853C52.897 50.6853 53.0989 50.7315 53.0989 50.8237L53.019 51.2637C52.8844 51.884 52.8129 52.236 52.8003 52.3156L51.98 56.7538C51.952 56.9044 51.9393 57.0575 51.9421 57.2107C51.9421 57.5962 52.0599 57.789 52.2997 57.789C52.5395 57.789 53.0064 57.5082 53.5406 56.9508C53.55 56.9406 53.5623 56.9335 53.5758 56.9305C53.5894 56.9275 53.6035 56.9287 53.6163 56.934Z" fill="white"/>
<path d="M61.6423 45.8197C62.2677 47.2448 62.5653 48.7913 62.513 50.3459C62.5069 51.3529 62.4197 52.3577 62.2522 53.3508C61.9325 55.2367 61.3899 56.6169 60.6243 57.4915C60.2819 57.9072 59.8501 58.241 59.3608 58.468C58.8715 58.6951 58.3373 58.8096 57.7975 58.8032C56.8006 58.8032 56.0771 58.514 55.6312 57.9273C55.1689 57.2931 54.9334 56.5229 54.9623 55.7396C54.9579 55.4124 54.9846 55.0854 55.0423 54.7631C55.2184 53.6756 55.7198 52.6663 56.4809 51.8672C56.8388 51.4952 57.2704 51.2014 57.7484 51.0044C58.2263 50.8075 58.7401 50.7116 59.2572 50.7231C59.8407 50.7134 60.4179 50.8443 60.9398 51.1044C60.965 50.5722 60.9819 50.174 60.9819 49.91C61.0212 48.5982 60.8202 47.2902 60.3887 46.0502C59.9961 45.0332 59.3259 44.5246 58.378 44.5246C57.9785 44.5234 57.5856 44.6259 57.2381 44.8222H57.217C57.1792 44.8222 57.1413 44.7971 57.0992 44.7426C57.0572 44.6881 57.053 44.6546 57.0992 44.642C57.6411 44.237 58.298 44.0139 58.9754 44.005C60.17 44.0175 61.066 44.6211 61.6423 45.8197ZM59.5979 57.3196C60.103 56.3391 60.4386 55.2807 60.5907 54.189C60.7211 53.3927 60.822 52.6635 60.8893 51.9971C60.6574 51.7256 60.3708 51.5057 60.048 51.3517C59.7372 51.2015 59.3965 51.1228 59.0511 51.1212C58.7656 51.1161 58.4828 51.1766 58.2245 51.298C57.9663 51.4194 57.7396 51.5983 57.562 51.8211C57.107 52.4194 56.8169 53.1259 56.7207 53.8705C56.6382 54.3169 56.5988 54.7702 56.6029 55.2242C56.5865 55.9816 56.7298 56.734 57.0235 57.4328C57.1018 57.6888 57.258 57.9142 57.4705 58.0779C57.683 58.2416 57.9414 58.3354 58.2098 58.3464C58.7188 58.3548 59.1773 58.0028 59.5979 57.3196Z" fill="white"/>
<path d="M72.0829 56.934C72.1047 56.9354 72.1257 56.9428 72.1435 56.9554C72.1614 56.968 72.1753 56.9853 72.1839 57.0053C72.1963 57.0239 72.203 57.0458 72.203 57.0682C72.203 57.0905 72.1963 57.1124 72.1839 57.131C71.8069 57.583 71.3728 57.9844 70.8925 58.3254C70.5644 58.5603 70.1731 58.6917 69.7693 58.7026C69.6509 58.7133 69.5317 58.6973 69.4203 58.656C69.3089 58.6147 69.2082 58.549 69.1257 58.4638C68.9758 58.242 68.906 57.9759 68.928 57.7094C68.9282 57.4489 68.9549 57.1891 69.0079 56.934L69.3487 54.9224C68.9879 55.9633 68.4359 56.9283 67.7207 57.768C67.4848 58.0678 67.1868 58.3135 66.8472 58.4885C66.5075 58.6635 66.134 58.7637 65.7521 58.7823C64.8491 58.7823 64.3962 58.2528 64.3934 57.1939C64.3922 56.8463 64.426 56.4995 64.4944 56.1587L65.2137 52.6174C65.248 52.4532 65.2677 52.2863 65.2725 52.1186C65.2725 51.775 65.159 51.599 64.9318 51.599C64.7555 51.617 64.5885 51.6871 64.4523 51.8001C64.2182 51.9749 63.9988 52.1683 63.7961 52.3785C63.7749 52.4002 63.7465 52.4137 63.7161 52.4162C63.6941 52.4159 63.6726 52.4089 63.6546 52.3962C63.6366 52.3835 63.6228 52.3656 63.6152 52.3449C63.6018 52.3253 63.5965 52.3013 63.6004 52.2779C63.6043 52.2545 63.6171 52.2335 63.6362 52.2192C63.9931 51.7803 64.398 51.3825 64.8435 51.0332C65.1432 50.8002 65.5108 50.6707 65.8909 50.6644C66.4756 50.6644 66.7701 51.0248 66.7701 51.7415C66.7606 52.0355 66.7282 52.3283 66.6733 52.6174L66.0297 55.7773C65.9576 56.091 65.9181 56.4112 65.9119 56.7329C65.9119 57.4244 66.1517 57.768 66.6313 57.768C66.8819 57.7372 67.1226 57.6517 67.3363 57.5177C67.5501 57.3837 67.7316 57.2045 67.868 56.9927C68.3869 56.3045 68.7942 55.5394 69.0752 54.7254C69.4991 53.5776 69.8104 52.3916 70.0049 51.1841L70.0259 51.0416C70.0932 50.8027 70.4129 50.6853 70.985 50.6853C71.3846 50.6853 71.5823 50.7315 71.5823 50.8237L71.5066 51.2637C71.372 51.884 71.2963 52.236 71.2837 52.3156L70.4634 56.7538C70.4353 56.9044 70.4227 57.0575 70.4255 57.2107C70.4255 57.5962 70.5475 57.789 70.7831 57.789C71.0186 57.789 71.4898 57.5082 72.045 56.9508C72.0556 56.9414 72.0688 56.9355 72.0829 56.934Z" fill="white"/>
<path d="M80.824 56.9341C80.8458 56.9354 80.8668 56.9428 80.8846 56.9554C80.9025 56.968 80.9164 56.9853 80.925 57.0053C80.9374 57.0239 80.9441 57.0458 80.9441 57.0682C80.9441 57.0905 80.9374 57.1124 80.925 57.131C80.5594 57.5832 80.135 57.9849 79.663 58.3254C79.3334 58.5604 78.9408 58.6918 78.5356 58.7026C78.4159 58.7135 78.2952 58.6969 78.1829 58.654C78.0706 58.6111 77.9697 58.5432 77.8879 58.4554C77.7283 58.2328 77.6537 57.9609 77.6775 57.6884C77.6914 57.4358 77.7181 57.184 77.7575 56.9341L78.3758 53.4095C78.0584 54.1382 77.5962 54.7954 77.0171 55.3415C76.6045 55.76 76.0488 56.0084 75.4607 56.0372C75.2824 56.0444 75.1049 56.0104 74.9422 55.9376C74.7794 55.8649 74.6358 55.7555 74.5226 55.6181C74.2742 55.2869 74.1533 54.878 74.1819 54.4656C74.1781 54.1569 74.2106 53.8489 74.2787 53.5478L74.4806 52.5964C74.5169 52.4326 74.5366 52.2655 74.5395 52.0977C74.5395 51.754 74.4301 51.578 74.1987 51.578C73.9674 51.578 73.6435 51.8127 73.1219 52.2737C73.0966 52.3031 73.0756 52.3156 73.063 52.3156C73.0412 52.3143 73.0202 52.3069 73.0023 52.2943C72.9845 52.2817 72.9706 52.2644 72.962 52.2444C72.9495 52.2258 72.9429 52.2039 72.9429 52.1815C72.9429 52.1591 72.9495 52.1373 72.962 52.1187C73.2976 51.6974 73.6881 51.3225 74.123 51.0039C74.4222 50.78 74.7838 50.654 75.1578 50.6434C75.7467 50.6434 76.037 51.0081 76.037 51.7373C76.026 52.0189 75.9923 52.2992 75.936 52.5755L75.8182 53.1119C75.7476 53.4456 75.7082 53.7851 75.7005 54.1261C75.6763 54.3599 75.7327 54.5949 75.8603 54.7925C75.917 54.8569 75.9879 54.9075 76.0674 54.9402C76.147 54.9729 76.233 54.9869 76.3188 54.9811C76.4985 54.9683 76.6739 54.9202 76.8349 54.8397C76.9958 54.7591 77.1393 54.6477 77.2569 54.5117C77.6345 54.1129 77.9353 53.6484 78.1444 53.1412C78.4424 52.4543 78.6611 51.7358 78.7965 50.9997C78.8638 50.7608 79.1793 50.6434 79.7555 50.6434C80.1762 50.6434 80.3529 50.6895 80.3529 50.7817L80.2729 51.2218C80.1383 51.842 80.0668 52.1941 80.0542 52.2737L79.2339 56.7119C79.2059 56.8626 79.1932 57.0156 79.1961 57.1687C79.1961 57.5543 79.3139 57.7471 79.5536 57.7471C79.7934 57.7471 80.2519 57.4663 80.7693 56.9089C80.7797 56.9091 80.7899 56.9115 80.7993 56.9158C80.8087 56.9202 80.8171 56.9264 80.824 56.9341Z" fill="white"/>
<path d="M88.0929 50.8362C88.2174 50.9063 88.3205 51.0088 88.3909 51.1329C88.4613 51.257 88.4964 51.3978 88.4925 51.5403C88.4925 52.1522 88.0424 52.7138 87.1422 53.2167C86.1321 53.7715 85.0335 54.1486 83.8948 54.3315C83.852 54.6414 83.8253 54.9534 83.8148 55.266C83.7817 55.9512 83.964 56.6295 84.3364 57.2065C84.5046 57.4431 84.7301 57.6337 84.9918 57.7604C85.2536 57.8872 85.5433 57.946 85.834 57.9315C86.1594 57.9287 86.4826 57.8778 86.7931 57.7806C87.1248 57.6828 87.4356 57.5252 87.7101 57.3154H87.7311C87.7527 57.3161 87.7738 57.3217 87.7927 57.3319C87.8117 57.3421 87.8281 57.3565 87.8405 57.3741C87.8741 57.416 87.8783 57.4495 87.8405 57.4747C87.0254 58.2735 85.9299 58.7245 84.7865 58.732C84.4113 58.7545 84.0358 58.6906 83.6893 58.5452C83.3428 58.3999 83.0345 58.177 82.7884 57.8938C82.3196 57.2979 82.0794 56.5548 82.1112 55.7983C82.1154 55.4582 82.1478 55.1189 82.2079 54.7841C82.3552 54.0529 82.6516 53.3597 83.0787 52.7473C83.5148 52.0959 84.0892 51.5479 84.7613 51.1421C85.4179 50.7396 86.1736 50.5264 86.9445 50.5261C87.3493 50.5172 87.748 50.6249 88.0929 50.8362ZM86.7342 51.8211C86.7396 51.7232 86.7224 51.6254 86.6837 51.5353C86.645 51.4451 86.586 51.3651 86.5112 51.3014C86.3581 51.181 86.1678 51.1173 85.9728 51.1212C85.7069 51.1376 85.4502 51.2238 85.2285 51.371C85.0069 51.5182 84.8283 51.7212 84.7108 51.9594C84.3213 52.602 84.0599 53.3135 83.941 54.0549C85.6236 53.6861 86.5421 53.0295 86.6963 52.0851C86.7169 51.9984 86.7296 51.91 86.7342 51.8211Z" fill="white"/>
<path d="M89.8596 57.877C89.4078 57.212 89.1808 56.4206 89.2118 55.6181C89.2166 55.2458 89.2503 54.8745 89.3127 54.5075C89.4458 53.76 89.7607 53.0564 90.2298 52.4581C90.6666 51.8829 91.2253 51.4107 91.8661 51.0751C92.4363 50.7627 93.0747 50.5943 93.7254 50.5848C94.166 50.5766 94.6011 50.6835 94.9873 50.8949C95.1218 50.9626 95.2393 51.0595 95.3311 51.1784C95.423 51.2974 95.4868 51.4354 95.5179 51.5823C95.549 51.7291 95.5466 51.8811 95.5108 52.0269C95.475 52.1727 95.4068 52.3086 95.3112 52.4246C95.2235 52.5118 95.118 52.5794 95.002 52.6228C94.8859 52.6661 94.7619 52.6843 94.6382 52.6761C94.5228 52.6841 94.4071 52.6684 94.2981 52.6299C94.1892 52.5914 94.0893 52.531 94.0048 52.4523C93.9204 52.3737 93.8531 52.2785 93.8072 52.1728C93.7613 52.0671 93.7377 51.9531 93.738 51.8379C93.688 51.6377 93.5931 51.4514 93.4604 51.2931C93.3888 51.2186 93.3014 51.161 93.2046 51.1248C93.1077 51.0885 93.0039 51.0744 92.9009 51.0835C92.6491 51.0924 92.4039 51.1657 92.1888 51.2963C91.9736 51.427 91.7959 51.6106 91.6726 51.8295C91.2955 52.4298 91.0543 53.1049 90.9659 53.8076C90.888 54.2223 90.8471 54.643 90.8439 55.0649C90.808 55.7831 90.9929 56.4952 91.3739 57.1059C91.5503 57.358 91.7888 57.5606 92.0666 57.6942C92.3444 57.8278 92.652 57.8879 92.9598 57.8687C93.2967 57.8634 93.6294 57.7937 93.9399 57.6633C94.2611 57.5345 94.5638 57.364 94.8401 57.1562H94.8611C94.8838 57.1571 94.9061 57.1627 94.9264 57.1729C94.9467 57.183 94.9646 57.1973 94.9789 57.2149C94.9934 57.231 95.0014 57.2519 95.0014 57.2735C95.0014 57.2952 94.9934 57.3161 94.9789 57.3322C94.5222 57.7755 93.9912 58.1357 93.4099 58.3967C92.9169 58.6202 92.3825 58.7387 91.8409 58.7445C91.4645 58.7729 91.087 58.7086 90.7415 58.5573C90.3959 58.406 90.0931 58.1724 89.8596 57.877Z" fill="white"/>
<path d="M104.721 56.9718C104.742 56.9734 104.763 56.981 104.78 56.9936C104.797 57.0062 104.81 57.0233 104.818 57.043C104.833 57.0615 104.841 57.0844 104.841 57.108C104.841 57.1316 104.833 57.1544 104.818 57.1729C104.462 57.6076 104.067 58.0101 103.64 58.3757C103.369 58.6094 103.023 58.74 102.664 58.7446C102.491 58.7676 102.315 58.7334 102.163 58.6471C102.011 58.5608 101.891 58.4272 101.823 58.2668C101.665 57.7988 101.597 57.3056 101.621 56.8125V56.1964C101.638 55.7702 101.578 55.3443 101.444 54.9392C101.387 54.794 101.284 54.6715 101.15 54.5905C101.016 54.5095 100.86 54.4745 100.704 54.4907C100.549 54.4925 100.395 54.5121 100.245 54.5494C99.8839 55.1729 99.5676 55.8213 99.299 56.4898C99.0474 57.0846 98.8489 57.7002 98.7058 58.3297C98.6385 58.5685 98.3231 58.6901 97.7468 58.6901C97.3261 58.6901 97.1494 58.6398 97.1494 58.5476L97.2294 58.1285C97.364 57.504 97.4355 57.152 97.4481 57.0724L98.2894 52.6383C98.3174 52.4863 98.3301 52.3319 98.3273 52.1773C98.3273 51.796 98.2095 51.6032 97.9697 51.6032C97.7299 51.6032 97.2714 51.8798 96.7498 52.4414C96.7308 52.4484 96.7099 52.4484 96.6909 52.4414C96.6683 52.439 96.6466 52.4313 96.6276 52.4189C96.6086 52.4065 96.5928 52.3898 96.5815 52.3701C96.5643 52.3528 96.5547 52.3295 96.5547 52.3052C96.5547 52.2808 96.5643 52.2575 96.5815 52.2402C96.9483 51.7891 97.3725 51.3876 97.8435 51.0458C98.1728 50.8101 98.5656 50.6787 98.9708 50.6686C99.0909 50.6585 99.2117 50.676 99.324 50.7196C99.4362 50.7632 99.537 50.8317 99.6187 50.92C99.7776 51.1413 99.8521 51.4117 99.829 51.6828C99.8154 51.9369 99.7888 52.19 99.7491 52.4414L99.1896 55.6223C99.5758 54.7318 100.063 53.8882 100.641 53.1077C101.123 52.4304 101.698 51.8238 102.349 51.3056C102.763 50.9337 103.287 50.7045 103.842 50.6518C103.979 50.641 104.118 50.6593 104.247 50.7056C104.377 50.7518 104.496 50.8249 104.595 50.92C104.677 51.0086 104.739 51.1145 104.774 51.2298C104.81 51.3452 104.819 51.467 104.801 51.5864C104.763 51.7818 104.663 51.9597 104.515 52.0935C104.351 52.2357 104.139 52.3092 103.922 52.2989C103.777 52.2993 103.634 52.2693 103.501 52.2109C103.429 52.181 103.36 52.1445 103.295 52.1019C103.169 52.0183 103.025 51.9639 102.875 51.9426C102.441 51.9991 102.044 52.216 101.764 52.5503C101.284 53.0345 100.86 53.5716 100.502 54.1513C100.807 54.0613 101.122 54.0147 101.44 54.013C102.079 54.013 102.504 54.1932 102.702 54.5578C102.935 55.0165 103.046 55.5276 103.022 56.0414C102.995 56.4622 103.021 56.8847 103.102 57.2987C103.123 57.4077 103.183 57.5053 103.272 57.5732C103.36 57.6411 103.47 57.6746 103.581 57.6675C103.821 57.6675 104.174 57.4495 104.637 57.0095C104.647 56.9967 104.66 56.9866 104.674 56.98C104.689 56.9734 104.705 56.9706 104.721 56.9718Z" fill="white"/>
<path d="M106.711 57.9692C106.231 57.3493 105.987 56.5804 106.021 55.7983C106.037 54.6554 106.372 53.5394 106.988 52.5755C107.384 51.9756 107.914 51.4751 108.536 51.1128C109.124 50.7682 109.794 50.5859 110.476 50.5848C110.849 50.5625 111.223 50.6244 111.568 50.7659C111.914 50.9074 112.224 51.1248 112.474 51.402C112.961 52.0101 113.21 52.7745 113.172 53.552C113.169 53.9322 113.128 54.3112 113.05 54.6835C112.916 55.4808 112.599 56.2365 112.125 56.8922C111.706 57.4803 111.159 57.9673 110.526 58.3171C109.961 58.6296 109.326 58.7967 108.679 58.8032C108.309 58.8255 107.938 58.7618 107.597 58.6171C107.255 58.4724 106.952 58.2506 106.711 57.9692ZM110.593 57.5501C111.001 56.9463 111.267 56.2588 111.372 55.5385C111.47 55.0671 111.518 54.5866 111.515 54.1052C111.54 53.3508 111.386 52.6011 111.065 51.9175C110.969 51.6671 110.802 51.4504 110.583 51.2945C110.365 51.1387 110.105 51.0507 109.836 51.0416C109.589 51.0544 109.348 51.1262 109.135 51.2509C108.921 51.3756 108.74 51.5496 108.608 51.7582C108.187 52.3705 107.917 53.0724 107.817 53.8076C107.733 54.274 107.687 54.7463 107.678 55.22C107.651 55.9786 107.806 56.7327 108.128 57.4202C108.225 57.6691 108.393 57.884 108.611 58.0383C108.83 58.1926 109.089 58.2794 109.357 58.2878C109.607 58.2787 109.851 58.2086 110.067 58.0836C110.283 57.9586 110.466 57.7827 110.598 57.5711L110.593 57.5501Z" fill="white"/>
<path d="M120.323 50.8362C120.448 50.9056 120.552 51.008 120.622 51.1322C120.693 51.2565 120.728 51.3977 120.723 51.5403C120.723 52.1522 120.273 52.7138 119.377 53.2167C118.367 53.7715 117.268 54.1487 116.129 54.3315C116.084 54.6412 116.058 54.9533 116.049 55.2661C116.014 55.9514 116.197 56.6304 116.571 57.2065C116.739 57.4439 116.964 57.6353 117.226 57.7628C117.487 57.8903 117.777 57.9498 118.068 57.9357C118.392 57.9329 118.714 57.882 119.023 57.7848C119.357 57.688 119.669 57.5303 119.945 57.3197C119.966 57.3203 119.987 57.3259 120.006 57.3361C120.025 57.3463 120.042 57.3607 120.054 57.3783C120.088 57.4202 120.092 57.4537 120.054 57.4789C119.239 58.2777 118.143 58.7287 117 58.7362C116.625 58.7593 116.249 58.6957 115.902 58.5503C115.556 58.4049 115.248 58.1817 115.002 57.898C114.531 57.3029 114.291 56.5593 114.325 55.8025C114.328 55.4621 114.362 55.1228 114.426 54.7883C114.569 54.0567 114.864 53.363 115.292 52.7515C115.727 52.0991 116.302 51.5509 116.975 51.1464C117.631 50.7432 118.387 50.5299 119.158 50.5303C119.568 50.5169 119.973 50.6232 120.323 50.8362ZM118.964 51.8211C118.971 51.7235 118.954 51.6258 118.916 51.5357C118.878 51.4455 118.82 51.3653 118.746 51.3014C118.593 51.181 118.402 51.1173 118.207 51.1212C117.942 51.1381 117.685 51.2244 117.463 51.3716C117.242 51.5187 117.063 51.7215 116.945 51.9594C116.559 52.6032 116.299 53.3143 116.18 54.0549C117.862 53.6861 118.775 53.0281 118.935 52.0851C118.951 51.998 118.961 51.9097 118.964 51.8211Z" fill="white"/>
<path d="M129.393 48.087C128.746 48.5531 128.227 49.1725 127.882 49.8891C127.328 51.0475 126.922 52.2712 126.675 53.531C127.303 52.3631 127.972 51.6074 128.682 51.2637C129.264 50.9513 129.91 50.7736 130.57 50.744C131.622 50.744 132.39 51.0458 132.876 51.6493C133.373 52.2814 133.632 53.0675 133.608 53.8705C133.609 54.1643 133.583 54.4577 133.528 54.7464C133.396 55.5194 133.076 56.2487 132.598 56.8712C132.15 57.4622 131.575 57.9461 130.915 58.2877C130.303 58.6094 129.622 58.7791 128.93 58.7823C128.552 58.798 128.176 58.731 127.827 58.5862C127.478 58.4414 127.165 58.2222 126.911 57.9441C126.406 57.3853 126.154 56.5094 126.154 55.3164C126.162 54.6826 126.221 54.0506 126.33 53.4262C126.559 51.9428 126.961 50.4912 127.529 49.1012C127.908 48.1598 128.5 47.318 129.258 46.6411C129.994 46.0524 130.859 45.6434 131.782 45.4467C132.359 45.324 132.923 45.1443 133.464 44.9102C133.847 44.7541 134.158 44.4632 134.339 44.093C134.339 44.0427 134.398 44.0259 134.47 44.0427C134.541 44.0595 134.575 44.093 134.562 44.1349C134.43 44.7384 134.215 45.3209 133.923 45.8658C133.733 46.2023 133.452 46.4784 133.111 46.662C132.634 46.8803 132.136 47.0529 131.626 47.1775C130.838 47.3598 130.084 47.6668 129.393 48.087ZM127.853 55.6307C127.816 56.3362 127.972 57.0386 128.303 57.6633C128.425 57.89 128.607 58.0786 128.83 58.2081C129.053 58.3376 129.307 58.4029 129.565 58.3967C129.844 58.3801 130.113 58.2949 130.351 58.1486C130.588 58.0023 130.785 57.7995 130.924 57.5585C131.39 56.8319 131.695 56.0147 131.82 55.1613C131.91 54.6945 131.954 54.2201 131.95 53.7447C131.99 53.0713 131.83 52.401 131.492 51.8169C131.364 51.6084 131.185 51.4363 130.971 51.3173C130.758 51.1983 130.517 51.1365 130.272 51.138C129.97 51.1466 129.675 51.234 129.418 51.3913C129.16 51.5487 128.948 51.7706 128.804 52.0348C128.387 52.6834 128.102 53.4065 127.962 54.1638C127.891 54.6453 127.854 55.1313 127.853 55.6181V55.6307Z" fill="white"/>
<path d="M145.238 51.423C145.716 52.0342 145.961 52.7946 145.928 53.5687C145.907 54.7449 145.55 55.8906 144.898 56.8712C144.489 57.4614 143.953 57.9526 143.329 58.3087C142.775 58.6252 142.15 58.7954 141.511 58.8032C141.155 58.8232 140.799 58.7548 140.475 58.6042C140.151 58.4535 139.87 58.2253 139.656 57.9399C139.21 57.3024 138.986 56.5371 139.017 55.7606C139.018 55.4802 139.038 55.2002 139.076 54.9224H137.536L136.939 58.3464C136.872 58.5853 136.552 58.7068 135.98 58.7068C135.559 58.7068 135.383 58.6565 135.383 58.5643L135.462 58.1452C135.597 57.5208 135.669 57.1687 135.681 57.0891L136.523 52.6551C136.551 52.5031 136.563 52.3486 136.56 52.1941C136.56 51.8127 136.443 51.6199 136.203 51.6199C135.963 51.6199 135.5 51.8965 134.983 52.4581C134.964 52.4652 134.943 52.4652 134.924 52.4581C134.901 52.4561 134.88 52.4485 134.86 52.4361C134.841 52.4237 134.826 52.4068 134.815 52.3869C134.797 52.3696 134.788 52.3462 134.788 52.3219C134.788 52.2976 134.797 52.2742 134.815 52.257C135.18 51.8049 135.605 51.4032 136.077 51.0625C136.406 50.8269 136.799 50.6955 137.204 50.6854C137.324 50.6756 137.445 50.6932 137.557 50.7368C137.669 50.7804 137.77 50.8487 137.852 50.9368C138.009 51.159 138.083 51.4287 138.062 51.6996C138.062 51.8085 138.033 52.06 137.982 52.4581L137.62 54.4865H139.16C139.372 53.4237 139.901 52.4494 140.679 51.6912C141.017 51.3478 141.421 51.075 141.867 50.8886C142.312 50.7023 142.791 50.6061 143.274 50.6057C143.642 50.5824 144.011 50.6439 144.352 50.7857C144.693 50.9274 144.996 51.1455 145.238 51.423ZM144.25 54.1471C144.281 53.3912 144.137 52.6383 143.829 51.9468C143.743 51.6998 143.585 51.4838 143.375 51.3263C143.166 51.1689 142.914 51.0771 142.651 51.0625C142.408 51.0747 142.171 51.1465 141.962 51.2715C141.753 51.3965 141.578 51.5708 141.453 51.7792C141.056 52.3973 140.81 53.099 140.733 53.8286C140.671 54.2632 140.639 54.7014 140.637 55.1403C140.617 55.9116 140.76 56.6784 141.057 57.3909C141.331 58.0027 141.705 58.3087 142.185 58.3087C142.424 58.2919 142.657 58.2166 142.861 58.0894C143.064 57.9623 143.234 57.7872 143.354 57.5795C143.759 56.9701 144.029 56.2813 144.145 55.5594C144.217 55.0977 144.252 54.6311 144.25 54.1638V54.1471Z" fill="white"/>
<path d="M153.98 51.2302C154.167 51.4407 154.31 51.6862 154.401 51.9525C154.492 52.2187 154.529 52.5003 154.51 52.7808C154.508 53.0139 154.489 53.2465 154.451 53.4765C154.319 54.3698 154.003 55.2261 153.521 55.9911C153.073 56.7275 152.474 57.3615 151.763 57.8519C151.149 58.2923 150.415 58.5351 149.66 58.5476C149.39 58.5476 149.087 58.5476 148.743 58.5098L148.099 62.0722C148.065 62.2632 148.045 62.4565 148.04 62.6505C148.033 62.7329 148.042 62.8159 148.068 62.8945C148.094 62.973 148.136 63.0455 148.191 63.1073C148.331 63.2124 148.505 63.2617 148.679 63.2456C148.734 63.2456 148.881 63.2456 149.1 63.2037C149.155 63.2037 149.184 63.2037 149.201 63.2959C149.218 63.3881 149.201 63.4091 149.138 63.4258L145.461 64C145.424 64 145.394 64 145.373 63.9036C145.352 63.8072 145.373 63.7779 145.424 63.7611C145.641 63.7319 145.851 63.6622 146.042 63.5557C146.188 63.4552 146.293 63.3069 146.341 63.1366C146.439 62.8312 146.513 62.5188 146.564 62.2021L148.246 52.6886C147.779 53.0071 147.451 53.2334 147.266 53.3675C147.246 53.3746 147.223 53.3746 147.203 53.3675C147.165 53.3675 147.131 53.3382 147.106 53.2879C147.098 53.2801 147.091 53.2707 147.087 53.2602C147.082 53.2498 147.08 53.2385 147.08 53.2272C147.08 53.2158 147.082 53.2045 147.087 53.1941C147.091 53.1836 147.098 53.1742 147.106 53.1664C147.375 52.9401 147.775 52.63 148.305 52.2318L148.566 50.8195C148.689 50.6952 148.831 50.5906 148.986 50.5093C149.24 50.3412 149.48 50.1549 149.706 49.9519C149.913 49.7881 150.06 49.5615 150.126 49.3065C150.126 49.252 150.181 49.2353 150.257 49.2479C150.333 49.2604 150.358 49.294 150.345 49.3484L150.009 51.2763C150.766 50.9041 151.596 50.701 152.44 50.6812C152.721 50.6629 153.002 50.7023 153.267 50.7967C153.532 50.8911 153.774 51.0387 153.98 51.2302ZM152.911 53.5394C152.911 52.236 152.356 51.5864 151.254 51.5864C150.795 51.5879 150.342 51.6761 149.916 51.8462L148.877 57.6591C149.335 57.8608 149.832 57.9622 150.333 57.9566C150.681 57.954 151.023 57.8561 151.319 57.6736C151.616 57.491 151.857 57.2309 152.015 56.9215C152.488 56.0612 152.775 55.1118 152.857 54.1345C152.885 53.9414 152.903 53.7469 152.911 53.5519V53.5394Z" fill="white"/>
<path d="M156.26 57.9693C155.778 57.3503 155.533 56.5807 155.57 55.7983C155.585 54.6554 155.92 53.5394 156.537 52.5755C156.932 51.9745 157.462 51.4736 158.085 51.1128C158.673 50.7676 159.342 50.5853 160.024 50.5848C160.397 50.5622 160.77 50.624 161.115 50.7656C161.461 50.9071 161.769 51.1247 162.018 51.402C162.507 52.0095 162.757 52.774 162.721 53.552C162.718 53.9322 162.677 54.3113 162.599 54.6835C162.463 55.4802 162.146 56.2356 161.673 56.8922C161.253 57.4794 160.707 57.9661 160.075 58.3171C159.509 58.6296 158.875 58.7968 158.228 58.8033C157.858 58.8256 157.487 58.7618 157.145 58.6171C156.804 58.4724 156.501 58.2506 156.26 57.9693ZM160.142 57.5502C160.548 56.9454 160.814 56.2583 160.92 55.5385C161.015 55.0666 161.062 54.5864 161.059 54.1052C161.086 53.3511 160.933 52.6015 160.613 51.9175C160.518 51.6674 160.35 51.451 160.132 51.2952C159.913 51.1394 159.653 51.0512 159.385 51.0416C159.138 51.0544 158.897 51.1262 158.683 51.2509C158.47 51.3756 158.289 51.5496 158.157 51.7583C157.736 52.3705 157.465 53.0724 157.366 53.8076C157.282 54.274 157.235 54.7463 157.227 55.22C157.2 55.9786 157.354 56.7327 157.677 57.4202C157.774 57.6691 157.942 57.884 158.16 58.0383C158.379 58.1926 158.638 58.2794 158.905 58.2878C159.153 58.2767 159.395 58.2056 159.609 58.0808C159.823 57.9559 160.003 57.781 160.134 57.5711L160.142 57.5502Z" fill="white"/>
<path d="M26.2573 1.43751C27.7116 1.62606 29.1362 1.99639 30.4975 2.53973C30.7589 2.59535 30.9909 2.74443 31.1495 2.95883C31.2747 3.23779 31.361 3.53248 31.4061 3.83474L32.0834 11.6718C32.0834 11.785 31.9866 11.8604 31.8015 11.8981C31.6164 11.9358 31.4986 11.8981 31.4608 11.7263C30.1764 8.7591 28.4601 6.46665 26.312 4.84894C24.1623 3.23449 21.5329 2.3819 18.8412 2.42657C15.1058 2.42657 12.2202 3.79841 10.1842 6.54209C8.14827 9.28576 7.12889 12.9682 7.12609 17.5894C7.08864 20.8236 7.65934 24.0361 8.80869 27.061C9.762 29.6906 11.3804 32.0306 13.5074 33.8545C15.4185 35.4922 17.86 36.3854 20.3808 36.3691C22.7625 36.383 25.0674 35.5306 26.8631 33.9719C28.77 32.3765 30.4765 29.943 31.9824 26.6712C32.0203 26.5245 32.1423 26.4659 32.3526 26.5036C32.5629 26.5413 32.6596 26.6167 32.6596 26.7299L31.8183 34.3951C31.7871 34.7003 31.7002 34.9971 31.5618 35.2711C31.3802 35.4595 31.1569 35.603 30.9097 35.6902C27.5986 36.9226 24.0922 37.5529 20.5575 37.5509C15.9528 37.5509 12.1038 36.6387 9.0106 34.8142C5.91741 32.9898 3.64449 30.6792 2.19184 27.8824C0.765683 25.1782 0.0194053 22.1697 0.0170603 19.1149C-0.0417787 15.7293 0.977262 12.4121 2.92798 9.6392C4.90252 6.87126 7.57732 4.6734 10.6806 3.26896C13.9326 1.76154 17.4798 0.991467 21.0665 1.01422C22.8051 1.02269 24.5405 1.16421 26.2573 1.43751Z" fill="white"/>
<path d="M50.3437 35.0992C47.6541 33.5082 45.4609 31.2042 44.0087 28.444C42.5108 25.6227 41.7417 22.4741 41.7708 19.2826C41.7708 15.4101 42.7523 12.0937 44.7154 9.33325C46.6264 6.61122 49.2434 4.45727 52.2871 3.1013C55.2396 1.73407 58.4539 1.01923 61.7097 1.00583C65.0342 0.937548 68.3101 1.80943 71.1576 3.5204C73.7983 5.13014 75.9503 7.42476 77.3832 10.1589C78.8218 12.848 79.5703 15.8498 79.5622 18.897C79.5864 22.2274 78.6426 25.4937 76.8448 28.3015C75.0473 31.1451 72.5417 33.4769 69.5717 35.0699C66.547 36.7222 63.1484 37.5762 59.699 37.5509C56.4136 37.6062 53.1766 36.7579 50.3437 35.0992ZM67.2665 34.3071C68.9491 33.0862 70.2602 31.3008 71.1996 28.9511C72.1391 26.6014 72.6102 23.792 72.613 20.5231C72.664 17.3605 72.1263 14.2159 71.0272 11.2485C70.123 8.73459 68.5374 6.51943 66.4463 4.84892C64.4393 3.30619 61.9642 2.49162 59.4298 2.53972C55.9917 2.53972 53.35 3.82634 51.5047 6.39958C49.6594 8.97282 48.7354 12.5715 48.7326 17.1955C48.6817 20.5316 49.2522 23.8483 50.4152 26.9771C51.537 29.8521 53.0653 32.0985 55.0003 33.7162C56.8239 35.2873 59.1559 36.149 61.5667 36.1428C63.6125 36.1646 65.6096 35.52 67.2539 34.3071H67.2665Z" fill="white"/>
<path d="M112.688 20.2423C113.591 21.0499 114.309 22.0418 114.792 23.1504C115.275 24.2591 115.514 25.4585 115.49 26.667C115.511 28.5678 114.921 30.4254 113.807 31.9686C112.597 33.6123 110.971 34.9078 109.096 35.7237C106.997 36.6627 104.717 37.1333 102.416 37.1025C101.362 37.1025 100.154 37.0466 98.7943 36.9348C98.2685 36.8971 97.6165 36.8594 96.8425 36.8217C96.0685 36.784 95.2103 36.763 94.2681 36.763L90.1373 36.8217C89.3843 36.8594 88.3621 36.8762 87.0834 36.8762C86.9698 36.8762 86.9109 36.763 86.9109 36.5367C86.9109 36.3104 86.9698 36.2014 87.0834 36.2014C87.9235 36.2355 88.7636 36.1307 89.5694 35.8913C89.8402 35.7982 90.0886 35.6498 90.2986 35.4557C90.5086 35.2616 90.6758 35.026 90.7893 34.7639C91.0734 33.979 91.1978 33.1455 91.1553 32.3122V6.2026C91.1553 4.62261 90.8945 3.57906 90.3644 3.07196C89.8344 2.56485 88.7576 2.31339 87.138 2.31339C87.0623 2.31339 87.0245 2.20024 87.0245 1.97393C87.0245 1.74762 87.0623 1.63446 87.138 1.63446L90.1373 1.69313C91.8704 1.76857 93.2501 1.8021 94.2681 1.8021C95.3639 1.80077 96.459 1.74483 97.5492 1.63446C97.9277 1.59674 98.4914 1.55903 99.2318 1.52131C99.9721 1.48359 100.645 1.46683 101.213 1.46683C104.646 1.46683 107.31 2.08709 109.205 3.32761C111.101 4.56813 112.043 6.37163 112.032 8.73812C112.037 10.5315 111.407 12.2691 110.253 13.6457C108.887 15.23 107.117 16.4174 105.129 17.0823C108.298 17.4595 110.818 18.5128 112.688 20.2423ZM98.1171 3.47848C97.6964 3.98139 97.4945 4.93274 97.4945 6.32414V17.0362L99.7576 17.0907C100.636 17.1325 101.512 16.9533 102.303 16.5695C103.094 16.1857 103.775 15.6097 104.284 14.8946C105.341 13.4138 105.87 11.5307 105.87 9.24523C105.87 7.10226 105.397 5.47756 104.452 4.37115C103.507 3.26474 102.15 2.70595 100.38 2.69477C99.2865 2.70735 98.5293 2.9588 98.1171 3.45333V3.47848ZM108.869 28.0291C108.869 25.1373 108.168 22.8449 106.766 21.1517C105.363 19.4586 103.25 18.612 100.426 18.612C99.3327 18.612 98.3526 18.6539 97.4819 18.7294V32.3164C97.4819 33.5569 97.7273 34.43 98.218 34.9358C98.7088 35.4415 99.7842 35.6957 101.444 35.6985C106.391 35.6929 108.866 33.1336 108.869 28.0207V28.0291Z" fill="white"/>
<path d="M149.096 27.7944C149.206 27.7933 149.314 27.8238 149.407 27.8824C149.504 27.9369 149.55 27.983 149.55 28.0207C149.191 30.6743 149.001 33.3479 148.982 36.0254C149.004 36.2549 148.944 36.4846 148.814 36.675C148.721 36.7529 148.613 36.8106 148.496 36.8445C148.379 36.8784 148.257 36.8878 148.137 36.872H123.116C123.003 36.872 122.944 36.7588 122.944 36.5325C122.944 36.3062 123.003 36.1973 123.116 36.1973C124.002 36.2363 124.888 36.1416 125.745 35.9165C126.005 35.8351 126.241 35.6924 126.433 35.5004C126.624 35.3085 126.767 35.073 126.847 34.8142C127.071 33.9955 127.166 33.1473 127.129 32.2997V6.20261C127.167 5.36598 127.072 4.52868 126.847 3.72157C126.758 3.46346 126.611 3.22931 126.416 3.0374C126.221 2.84549 125.984 2.70099 125.724 2.61516C124.881 2.37011 124.002 2.26533 123.125 2.30503C123.011 2.30503 122.952 2.19188 122.952 1.96556C122.952 1.73925 123.011 1.6261 123.125 1.6261H147.102C147.476 1.6261 147.666 1.79373 147.666 2.1332L147.779 9.63081C147.779 9.71043 147.674 9.76492 147.468 9.80264C147.262 9.84035 147.136 9.80264 147.102 9.68948C146.496 7.51019 145.477 5.89388 144.044 4.84055C142.611 3.78723 140.725 3.26057 138.386 3.26057H136.703C135.572 3.26057 134.743 3.50783 134.213 3.99398C133.683 4.48013 133.422 5.25127 133.422 6.24872V17.7529H138.117C140.304 17.7529 141.987 17.3771 143.165 16.6255C143.712 16.3013 144.163 15.8377 144.472 15.2824C144.78 14.7271 144.934 14.1 144.919 13.4655C144.919 13.3524 145.024 13.2979 145.23 13.2979C145.436 13.2979 145.541 13.3524 145.541 13.4655L145.474 18.5408L145.533 21.2481C145.609 22.525 145.646 23.5392 145.646 24.2908C145.646 24.3662 145.533 24.4039 145.306 24.4039C145.079 24.4039 144.965 24.3662 144.965 24.2908C144.991 23.5855 144.842 22.8847 144.531 22.2508C144.22 21.6168 143.756 21.0693 143.181 20.6572C141.995 19.7715 140.289 19.3287 138.062 19.3287H133.435V32.0734C133.435 33.163 133.642 33.9705 134.057 34.4957C134.302 34.7739 134.609 34.9906 134.953 35.1282C135.297 35.2659 135.669 35.3205 136.039 35.2878H137.906C140.848 35.2878 143.205 34.6857 144.978 33.4815C146.75 32.2773 148.053 30.4165 148.885 27.8992C148.873 27.8321 148.944 27.7944 149.096 27.7944Z" fill="white"/>
<path d="M158.594 11.6718C158.555 11.7835 158.441 11.8297 158.254 11.8101C158.064 11.8101 157.972 11.7263 157.972 11.6131C158.118 10.1128 158.287 8.16815 158.481 5.77931C158.674 3.39047 158.768 1.59536 158.763 0.39395C158.763 0.205357 158.868 0.113151 159.074 0.113151C159.28 0.113151 159.385 0.205357 159.385 0.39395C159.385 1.23214 160.462 1.65123 162.611 1.65123C165.856 1.76299 169.642 1.81887 173.969 1.81887C176.196 1.81887 178.554 1.78254 181.044 1.7099L184.889 1.65123C185.944 1.69008 187 1.59572 188.031 1.37044C188.321 1.30515 188.589 1.16734 188.809 0.970039C189.03 0.772742 189.197 0.522506 189.293 0.243069C189.327 0.0921948 189.453 0.0167542 189.659 0.0167542C189.865 0.0167542 189.971 0.0921948 189.971 0.243069C189.858 1.36066 189.736 3.16416 189.605 5.65359C189.473 8.14301 189.407 10.1351 189.407 11.6299C189.407 11.743 189.31 11.8017 189.121 11.8017C188.932 11.8017 188.818 11.743 188.78 11.6299C188.219 8.73813 187.164 6.56862 185.613 5.12134C184.07 3.67414 182.015 2.89373 179.896 2.95042C178.802 2.95042 178.079 3.18512 177.717 3.65451C177.355 4.1239 177.183 5.01656 177.183 6.33252V32.3164C177.139 33.1681 177.253 34.0206 177.519 34.831C177.639 35.0979 177.819 35.3337 178.045 35.5198C178.271 35.706 178.538 35.8374 178.823 35.9039C179.825 36.1293 180.851 36.2237 181.877 36.1847C181.991 36.1847 182.05 36.2978 182.05 36.5199C182.05 36.7421 181.991 36.8594 181.877 36.8594C180.519 36.8594 179.446 36.8594 178.651 36.8049L173.956 36.7463L169.371 36.8049C168.581 36.8412 167.487 36.8594 166.09 36.8594C165.977 36.8594 165.918 36.7462 165.918 36.5199C165.918 36.2936 165.977 36.1847 166.09 36.1847C167.108 36.2206 168.126 36.1262 169.119 35.9039C169.414 35.8348 169.689 35.6996 169.924 35.5086C170.159 35.3176 170.347 35.0758 170.473 34.8016C170.765 33.9966 170.89 33.1415 170.844 32.2871V6.2026C170.844 4.92436 170.671 4.06102 170.335 3.6084C169.998 3.15578 169.296 2.93366 168.231 2.93366C163.767 2.93366 160.554 5.84637 158.594 11.6718Z" fill="white"/>
<path d="M20.856 54.2728H0.706787V55.1026H20.856V54.2728Z" fill="white"/>
<path d="M187.295 54.2728H167.146V55.1026H187.295V54.2728Z" fill="white"/>
</svg>
